<svg width="90" height="90" viewBox="0 0 90 90" fill="none" xmlns="http://www.w3.org/2000/svg">
<path d="M45 67.5C32.5736 67.5 22.5 57.4264 22.5 45C22.5 32.5736 32.5736 22.5 45 22.5C57.4264 22.5 67.5 32.5736 67.5 45C67.5 57.4264 57.4264 67.5 45 67.5ZM45 60C53.2841 60 60 53.2841 60 45C60 36.7157 53.2841 30 45 30C36.7157 30 30 36.7157 30 45C30 53.2841 36.7157 60 45 60ZM41.25 3.75H48.75V15H41.25V3.75ZM41.25 75H48.75V86.25H41.25V75ZM13.1802 18.4835L18.4835 13.1802L26.4384 21.1352L21.1352 26.4384L13.1802 18.4835ZM63.5614 68.865L68.865 63.5614L76.8199 71.5166L71.5166 76.8199L63.5614 68.865ZM71.5166 13.1802L76.8199 18.4835L68.865 26.4384L63.5614 21.1352L71.5166 13.1802ZM21.1352 63.5614L26.4384 68.865L18.4835 76.8199L13.1802 71.5166L21.1352 63.5614ZM86.25 41.25V48.75H75V41.25H86.25ZM15 41.25V48.75H3.75V41.25H15Z" fill="white"/>
</svg>
