<svg width="209" height="25" viewBox="0 0 209 25" fill="none" xmlns="http://www.w3.org/2000/svg">
<path d="M3.68 6.94V6.4H8.5V6.94L7.4 7.04C7.18667 7.06667 7.06 7.12 7.02 7.2C6.98 7.28 6.96 7.55333 6.96 8.02V16.04C6.96 16.7733 6.84667 17.46 6.62 18.1C6.40667 18.7267 6.04 19.2333 5.52 19.62C5 20.0067 4.28667 20.2 3.38 20.2C2.91333 20.2 2.45333 20.12 2 19.96C1.56 19.8 1.18 19.5133 0.86 19.1C0.54 18.6733 0.333333 18.08 0.24 17.32L1.4 16.98C1.42667 17.6867 1.53333 18.2267 1.72 18.6C1.92 18.9733 2.16 19.2267 2.44 19.36C2.72 19.4933 3.00667 19.56 3.3 19.56C3.67333 19.56 4 19.4667 4.28 19.28C4.57333 19.08 4.8 18.74 4.96 18.26C5.13333 17.78 5.22 17.0933 5.22 16.2V8.02C5.22 7.55333 5.2 7.28 5.16 7.2C5.12 7.12 4.99333 7.06667 4.78 7.04L3.68 6.94ZM20.2477 19.48V20H17.1677V18.4C16.701 19.0267 16.1677 19.4867 15.5677 19.78C14.981 20.06 14.3943 20.2 13.8077 20.2C12.861 20.2 12.121 19.9 11.5877 19.3C11.0677 18.6867 10.8077 17.8267 10.8077 16.72V11.72C10.8077 11.2533 10.7877 10.98 10.7477 10.9C10.7077 10.82 10.581 10.7667 10.3677 10.74L9.26766 10.64V10.1H12.4477V16.7C12.4477 17.6867 12.5943 18.3867 12.8877 18.8C13.1943 19.2 13.6343 19.4 14.2077 19.4C14.6343 19.4 15.101 19.2667 15.6077 19C16.1277 18.7333 16.6143 18.22 17.0677 17.46V11.72C17.0677 11.2533 17.0477 10.98 17.0077 10.9C16.9677 10.8067 16.841 10.7533 16.6277 10.74L15.1277 10.64V10.1H18.7077V18.38C18.7077 18.8467 18.7277 19.12 18.7677 19.2C18.8077 19.28 18.9343 19.3333 19.1477 19.36L20.2477 19.48ZM25.7403 15.96L24.5203 15.66C22.8536 15.2333 22.0203 14.2733 22.0203 12.78C22.0203 12.2867 22.1336 11.82 22.3603 11.38C22.587 10.94 22.947 10.5867 23.4403 10.32C23.947 10.04 24.5936 9.9 25.3803 9.9C26.2603 9.9 26.967 10.0467 27.5003 10.34C28.0336 10.6333 28.407 11.0133 28.6203 11.48C28.8336 11.9467 28.9003 12.4533 28.8203 13L27.2603 13.28C27.4203 12.4133 27.327 11.74 26.9803 11.26C26.647 10.78 26.0936 10.54 25.3203 10.54C24.7203 10.54 24.2403 10.6933 23.8803 11C23.5203 11.2933 23.3403 11.7267 23.3403 12.3C23.3403 12.7267 23.4736 13.1067 23.7403 13.44C24.007 13.76 24.4536 14 25.0803 14.16L26.3403 14.46C27.2203 14.6733 27.9003 15.0133 28.3803 15.48C28.8736 15.9467 29.1203 16.56 29.1203 17.32C29.1203 18.1733 28.807 18.8667 28.1803 19.4C27.567 19.9333 26.687 20.2 25.5403 20.2C24.9936 20.2 24.4603 20.12 23.9403 19.96C23.4336 19.7867 22.987 19.52 22.6003 19.16C22.227 18.7867 21.9536 18.3067 21.7803 17.72L22.9003 17.32C23.047 18.16 23.367 18.7467 23.8603 19.08C24.3536 19.4133 24.9203 19.58 25.5603 19.58C25.9336 19.58 26.287 19.52 26.6203 19.4C26.967 19.28 27.247 19.0933 27.4603 18.84C27.6736 18.5733 27.7803 18.2333 27.7803 17.82C27.7803 17.3933 27.6336 17.0267 27.3403 16.72C27.047 16.4133 26.5136 16.16 25.7403 15.96ZM37.593 17.96C37.393 18.7333 37.0796 19.3 36.653 19.66C36.2263 20.02 35.6796 20.2 35.013 20.2C34.373 20.2 33.853 20.06 33.453 19.78C33.053 19.4867 32.7596 19.1067 32.573 18.64C32.3863 18.1733 32.293 17.6867 32.293 17.18V11.72C32.293 11.2533 32.273 10.98 32.233 10.9C32.2063 10.82 32.0796 10.7667 31.853 10.74L30.753 10.64V10.1H32.293V7.48L33.933 7.14V10.1H37.193V10.74H33.933V17.34C33.933 18.18 34.0463 18.76 34.273 19.08C34.513 19.4 34.8263 19.56 35.213 19.56C35.5996 19.56 35.893 19.4133 36.093 19.12C36.3063 18.8267 36.4596 18.3467 36.553 17.68L37.593 17.96ZM47.9586 19.56C48.8519 19.56 49.5719 19.34 50.1186 18.9C50.6786 18.46 50.9586 17.8133 50.9586 16.96C50.9586 16.28 50.7519 15.7133 50.3386 15.26C49.9253 14.7933 49.2053 14.42 48.1786 14.14L46.7986 13.74C45.7853 13.46 45.0119 12.9867 44.4786 12.32C43.9453 11.6533 43.6786 10.84 43.6786 9.88C43.6786 9.24 43.8253 8.64 44.1186 8.08C44.4253 7.52 44.8853 7.06667 45.4986 6.72C46.1253 6.37333 46.9186 6.2 47.8786 6.2C48.9453 6.2 49.8053 6.4 50.4586 6.8C51.1119 7.18667 51.5653 7.69333 51.8186 8.32C52.0719 8.94667 52.1319 9.62 51.9986 10.34L50.3186 10.7C50.4919 9.46 50.3653 8.50667 49.9386 7.84C49.5253 7.17333 48.8053 6.84 47.7786 6.84C46.9653 6.84 46.3253 7.06 45.8586 7.5C45.3919 7.92667 45.1586 8.55333 45.1586 9.38C45.1586 10.0333 45.3453 10.5933 45.7186 11.06C46.0919 11.5133 46.7519 11.8733 47.6986 12.14L49.0786 12.54C51.3053 13.1533 52.4186 14.4533 52.4186 16.44C52.4186 17.1467 52.2519 17.7867 51.9186 18.36C51.5986 18.92 51.1053 19.3667 50.4386 19.7C49.7853 20.0333 48.9586 20.2 47.9586 20.2C47.2653 20.2 46.5986 20.0933 45.9586 19.88C45.3319 19.6667 44.7919 19.3 44.3386 18.78C43.8986 18.26 43.6053 17.54 43.4586 16.62L44.6586 16.22C44.7253 17.1 44.9186 17.78 45.2386 18.26C45.5586 18.74 45.9586 19.08 46.4386 19.28C46.9186 19.4667 47.4253 19.56 47.9586 19.56ZM61.2756 17.14H61.7956V20H54.4156V19.5L59.7756 10.74H56.7756C56.3356 10.74 56.0623 10.7733 55.9556 10.84C55.8623 10.8933 55.7756 11.0333 55.6956 11.26L55.1556 12.96H54.6356V10.1H61.5956V10.6L56.2756 19.36H59.6556C60.109 19.36 60.3823 19.3333 60.4756 19.28C60.5823 19.2267 60.669 19.08 60.7356 18.84L61.2756 17.14ZM68.1144 10.54C67.381 10.54 66.8077 10.8467 66.3944 11.46C65.9944 12.06 65.7944 13.0533 65.7944 14.44V15.64C65.7944 17.04 65.9944 18.0467 66.3944 18.66C66.8077 19.26 67.4744 19.56 68.3944 19.56C69.021 19.56 69.5277 19.4 69.9144 19.08C70.301 18.76 70.561 18.2067 70.6944 17.42L71.7544 17.72C71.5144 18.6267 71.0744 19.2667 70.4344 19.64C69.7944 20.0133 69.081 20.2 68.2944 20.2C66.8544 20.2 65.7744 19.7533 65.0544 18.86C64.3477 17.9533 63.9944 16.7467 63.9944 15.24V14.84C63.9944 13.3467 64.3477 12.1533 65.0544 11.26C65.761 10.3533 66.781 9.9 68.1144 9.9C68.9677 9.9 69.6744 10.0667 70.2344 10.4C70.8077 10.7333 71.2144 11.1867 71.4544 11.76C71.6944 12.32 71.761 12.94 71.6544 13.62L70.0744 13.86C70.221 12.7933 70.121 11.9733 69.7744 11.4C69.441 10.8267 68.8877 10.54 68.1144 10.54ZM80.5334 17.14H81.0534V20H73.6734V19.5L79.0334 10.74H76.0334C75.5934 10.74 75.3201 10.7733 75.2134 10.84C75.1201 10.8933 75.0334 11.0333 74.9534 11.26L74.4134 12.96H73.8934V10.1H80.8534V10.6L75.5334 19.36H78.9134C79.3668 19.36 79.6401 19.3333 79.7334 19.28C79.8401 19.2267 79.9268 19.08 79.9934 18.84L80.5334 17.14ZM91.2122 17.72C90.9722 18.6267 90.5189 19.2667 89.8522 19.64C89.1989 20.0133 88.4722 20.2 87.6722 20.2C86.1922 20.2 85.0855 19.7533 84.3522 18.86C83.6189 17.9533 83.2522 16.7467 83.2522 15.24V14.84C83.2522 13.3467 83.6055 12.1533 84.3122 11.26C85.0189 10.3533 86.0455 9.9 87.3922 9.9C88.1122 9.9 88.7655 10.0467 89.3522 10.34C89.9522 10.6333 90.4255 11.0667 90.7722 11.64C91.1322 12.2133 91.3122 12.9267 91.3122 13.78C91.3122 14.18 91.2722 14.6 91.1922 15.04H85.0522V15.64C85.0522 17.04 85.2655 18.0467 85.6922 18.66C86.1322 19.26 86.8389 19.56 87.8122 19.56C88.4255 19.56 88.9322 19.4 89.3322 19.08C89.7455 18.76 90.0189 18.2067 90.1522 17.42L91.2122 17.72ZM87.3922 10.54C86.6055 10.54 86.0189 10.84 85.6322 11.44C85.2455 12.04 85.0522 13.0267 85.0522 14.4H89.5522V14.34C89.5789 14.1667 89.5989 14 89.6122 13.84C89.6255 13.6667 89.6322 13.5133 89.6322 13.38C89.6322 12.38 89.4255 11.66 89.0122 11.22C88.5989 10.7667 88.0589 10.54 87.3922 10.54ZM97.88 10.54C97.1467 10.54 96.5733 10.8467 96.16 11.46C95.76 12.06 95.56 13.0533 95.56 14.44V15.64C95.56 17.04 95.76 18.0467 96.16 18.66C96.5733 19.26 97.24 19.56 98.16 19.56C98.7867 19.56 99.2933 19.4 99.68 19.08C100.067 18.76 100.327 18.2067 100.46 17.42L101.52 17.72C101.28 18.6267 100.84 19.2667 100.2 19.64C99.56 20.0133 98.8467 20.2 98.06 20.2C96.62 20.2 95.54 19.7533 94.82 18.86C94.1133 17.9533 93.76 16.7467 93.76 15.24V14.84C93.76 13.3467 94.1133 12.1533 94.82 11.26C95.5267 10.3533 96.5467 9.9 97.88 9.9C98.7333 9.9 99.44 10.0667 100 10.4C100.573 10.7333 100.98 11.1867 101.22 11.76C101.46 12.32 101.527 12.94 101.42 13.62L99.84 13.86C99.9867 12.7933 99.8867 11.9733 99.54 11.4C99.2067 10.8267 98.6533 10.54 97.88 10.54ZM105.579 7.86C105.259 7.86 104.992 7.76 104.779 7.56C104.579 7.34667 104.479 7.07333 104.479 6.74C104.479 6.42 104.579 6.16 104.779 5.96C104.992 5.76 105.259 5.66 105.579 5.66C105.899 5.66 106.159 5.76 106.359 5.96C106.572 6.16 106.679 6.42 106.679 6.74C106.679 7.07333 106.572 7.34667 106.359 7.56C106.159 7.76 105.899 7.86 105.579 7.86ZM103.239 10.64V10.1H106.419V18.38C106.419 18.8467 106.439 19.12 106.479 19.2C106.519 19.28 106.646 19.3333 106.859 19.36L107.959 19.48V20H103.239V19.48L104.339 19.36C104.552 19.3333 104.679 19.28 104.719 19.2C104.759 19.12 104.779 18.8467 104.779 18.38V11.72C104.779 11.2533 104.759 10.98 104.719 10.9C104.679 10.82 104.552 10.7667 104.339 10.74L103.239 10.64ZM120.396 19.48V20H115.676V19.48L116.776 19.36C116.989 19.3333 117.116 19.28 117.156 19.2C117.196 19.12 117.216 18.8467 117.216 18.38V13.4C117.216 12.4133 117.056 11.72 116.736 11.32C116.416 10.9067 115.956 10.7 115.356 10.7C114.916 10.7 114.429 10.8333 113.896 11.1C113.362 11.3667 112.862 11.8867 112.396 12.66V18.38C112.396 18.8467 112.416 19.12 112.456 19.2C112.496 19.28 112.622 19.3333 112.836 19.36L113.936 19.48V20H109.216V19.48L110.316 19.36C110.529 19.3333 110.656 19.28 110.696 19.2C110.736 19.12 110.756 18.8467 110.756 18.38V11.72C110.756 11.2533 110.736 10.98 110.696 10.9C110.656 10.82 110.529 10.7667 110.316 10.74L109.216 10.64V10.1H112.296V11.72C112.776 11.08 113.316 10.62 113.916 10.34C114.529 10.0467 115.142 9.9 115.756 9.9C116.742 9.9 117.502 10.2067 118.036 10.82C118.582 11.42 118.856 12.2733 118.856 13.38V18.38C118.856 18.8467 118.876 19.12 118.916 19.2C118.956 19.28 119.082 19.3333 119.296 19.36L120.396 19.48ZM125.651 6.4H136.291V9.66H135.771L135.191 7.56C135.151 7.4 135.104 7.28667 135.051 7.22C135.011 7.14 134.924 7.09333 134.791 7.08C134.657 7.05333 134.431 7.04 134.111 7.04H131.851V18.38C131.851 18.8467 131.871 19.12 131.911 19.2C131.951 19.28 132.077 19.3333 132.291 19.36L133.391 19.48V20H128.571V19.48L129.671 19.36C129.884 19.3333 130.011 19.28 130.051 19.2C130.091 19.12 130.111 18.8467 130.111 18.38V7.04H127.831C127.524 7.04 127.297 7.05333 127.151 7.08C127.017 7.09333 126.924 7.14 126.871 7.22C126.831 7.28667 126.791 7.4 126.751 7.56L126.171 9.66H125.651V6.4ZM148.303 19.48V20H143.583V19.48L144.683 19.36C144.896 19.3333 145.023 19.28 145.063 19.2C145.103 19.12 145.123 18.8467 145.123 18.38V13.4C145.123 12.4133 144.963 11.72 144.643 11.32C144.323 10.9067 143.869 10.7 143.283 10.7C142.829 10.7 142.336 10.8333 141.803 11.1C141.269 11.3667 140.769 11.8933 140.303 12.68V18.38C140.303 18.8467 140.323 19.12 140.363 19.2C140.403 19.28 140.529 19.3333 140.743 19.36L141.842 19.48V20H137.123V19.48L138.223 19.36C138.436 19.3333 138.563 19.28 138.603 19.2C138.643 19.12 138.663 18.8467 138.663 18.38V6.82C138.663 6.35333 138.643 6.08 138.603 6C138.563 5.92 138.436 5.86667 138.223 5.84L137.123 5.74V5.2H140.303V11.62C140.769 11.02 141.303 10.5867 141.903 10.32C142.503 10.04 143.096 9.9 143.683 9.9C144.669 9.9 145.429 10.2067 145.963 10.82C146.496 11.42 146.763 12.2733 146.763 13.38V18.38C146.763 18.8467 146.783 19.12 146.823 19.2C146.863 19.28 146.989 19.3333 147.203 19.36L148.303 19.48ZM151.81 7.86C151.49 7.86 151.223 7.76 151.01 7.56C150.81 7.34667 150.71 7.07333 150.71 6.74C150.71 6.42 150.81 6.16 151.01 5.96C151.223 5.76 151.49 5.66 151.81 5.66C152.13 5.66 152.39 5.76 152.59 5.96C152.803 6.16 152.91 6.42 152.91 6.74C152.91 7.07333 152.803 7.34667 152.59 7.56C152.39 7.76 152.13 7.86 151.81 7.86ZM149.47 10.64V10.1H152.65V18.38C152.65 18.8467 152.67 19.12 152.71 19.2C152.75 19.28 152.876 19.3333 153.09 19.36L154.19 19.48V20H149.47V19.48L150.57 19.36C150.783 19.3333 150.91 19.28 150.95 19.2C150.99 19.12 151.01 18.8467 151.01 18.38V11.72C151.01 11.2533 150.99 10.98 150.95 10.9C150.91 10.82 150.783 10.7667 150.57 10.74L149.47 10.64ZM166.626 19.48V20H161.906V19.48L163.006 19.36C163.219 19.3333 163.346 19.28 163.386 19.2C163.426 19.12 163.446 18.8467 163.446 18.38V13.4C163.446 12.4133 163.286 11.72 162.966 11.32C162.646 10.9067 162.186 10.7 161.586 10.7C161.146 10.7 160.659 10.8333 160.126 11.1C159.593 11.3667 159.093 11.8867 158.626 12.66V18.38C158.626 18.8467 158.646 19.12 158.686 19.2C158.726 19.28 158.853 19.3333 159.066 19.36L160.166 19.48V20H155.446V19.48L156.546 19.36C156.759 19.3333 156.886 19.28 156.926 19.2C156.966 19.12 156.986 18.8467 156.986 18.38V11.72C156.986 11.2533 156.966 10.98 156.926 10.9C156.886 10.82 156.759 10.7667 156.546 10.74L155.446 10.64V10.1H158.526V11.72C159.006 11.08 159.546 10.62 160.146 10.34C160.759 10.0467 161.373 9.9 161.986 9.9C162.973 9.9 163.733 10.2067 164.266 10.82C164.813 11.42 165.086 12.2733 165.086 13.38V18.38C165.086 18.8467 165.106 19.12 165.146 19.2C165.186 19.28 165.313 19.3333 165.526 19.36L166.626 19.48ZM177.11 21.16C177.11 22.2267 176.717 23.04 175.93 23.6C175.157 24.1733 174.077 24.46 172.69 24.46C171.17 24.46 170.057 24.1933 169.35 23.66C168.643 23.14 168.277 22.48 168.25 21.68L169.73 21.38C169.677 22.1133 169.87 22.7 170.31 23.14C170.763 23.5933 171.557 23.82 172.69 23.82C173.703 23.82 174.517 23.6333 175.13 23.26C175.757 22.8867 176.07 22.34 176.07 21.62C176.07 21.0867 175.89 20.6867 175.53 20.42C175.17 20.1533 174.577 20.02 173.75 20.02H171.37C170.477 20.02 169.85 19.8333 169.49 19.46C169.13 19.0733 168.95 18.6467 168.95 18.18C168.95 17.7933 169.043 17.4333 169.23 17.1C169.43 16.7533 169.743 16.4133 170.17 16.08C169.637 15.8267 169.203 15.46 168.87 14.98C168.537 14.4867 168.37 13.8933 168.37 13.2C168.37 12.4667 168.537 11.86 168.87 11.38C169.217 10.8867 169.67 10.52 170.23 10.28C170.803 10.0267 171.437 9.9 172.13 9.9H172.47C173.203 9.9 173.857 10.0333 174.43 10.3L177.33 9.3L177.55 10.8H175.21C175.517 11.0667 175.757 11.4 175.93 11.8C176.117 12.2 176.21 12.6667 176.21 13.2C176.21 13.9067 176.037 14.5067 175.69 15C175.357 15.4933 174.91 15.8667 174.35 16.12C173.79 16.36 173.163 16.48 172.47 16.48H172.13C171.903 16.48 171.683 16.4667 171.47 16.44C171.257 16.4133 171.05 16.3733 170.85 16.32C170.557 16.52 170.343 16.7267 170.21 16.94C170.09 17.1533 170.03 17.3733 170.03 17.6C170.03 17.8667 170.123 18.08 170.31 18.24C170.51 18.4 170.823 18.48 171.25 18.48H173.85C174.903 18.48 175.71 18.7067 176.27 19.16C176.83 19.6133 177.11 20.28 177.11 21.16ZM172.47 15.84C172.83 15.84 173.157 15.76 173.45 15.6C173.757 15.44 174.003 15.1733 174.19 14.8C174.377 14.4133 174.47 13.88 174.47 13.2C174.47 12.5067 174.377 11.9733 174.19 11.6C174.003 11.2133 173.757 10.94 173.45 10.78C173.157 10.62 172.83 10.54 172.47 10.54H172.13C171.77 10.54 171.437 10.62 171.13 10.78C170.823 10.94 170.577 11.2133 170.39 11.6C170.203 11.9733 170.11 12.5067 170.11 13.2C170.11 13.88 170.203 14.4133 170.39 14.8C170.577 15.1733 170.823 15.44 171.13 15.6C171.437 15.76 171.77 15.84 172.13 15.84H172.47ZM182.811 15.96L181.591 15.66C179.924 15.2333 179.091 14.2733 179.091 12.78C179.091 12.2867 179.204 11.82 179.431 11.38C179.657 10.94 180.017 10.5867 180.511 10.32C181.017 10.04 181.664 9.9 182.451 9.9C183.331 9.9 184.037 10.0467 184.571 10.34C185.104 10.6333 185.477 11.0133 185.691 11.48C185.904 11.9467 185.971 12.4533 185.891 13L184.331 13.28C184.491 12.4133 184.397 11.74 184.051 11.26C183.717 10.78 183.164 10.54 182.391 10.54C181.791 10.54 181.311 10.6933 180.951 11C180.591 11.2933 180.411 11.7267 180.411 12.3C180.411 12.7267 180.544 13.1067 180.811 13.44C181.077 13.76 181.524 14 182.151 14.16L183.411 14.46C184.291 14.6733 184.971 15.0133 185.451 15.48C185.944 15.9467 186.191 16.56 186.191 17.32C186.191 18.1733 185.877 18.8667 185.251 19.4C184.637 19.9333 183.757 20.2 182.611 20.2C182.064 20.2 181.531 20.12 181.011 19.96C180.504 19.7867 180.057 19.52 179.671 19.16C179.297 18.7867 179.024 18.3067 178.851 17.72L179.971 17.32C180.117 18.16 180.437 18.7467 180.931 19.08C181.424 19.4133 181.991 19.58 182.631 19.58C183.004 19.58 183.357 19.52 183.691 19.4C184.037 19.28 184.317 19.0933 184.531 18.84C184.744 18.5733 184.851 18.2333 184.851 17.82C184.851 17.3933 184.704 17.0267 184.411 16.72C184.117 16.4133 183.584 16.16 182.811 15.96Z" fill="black"/>
<path d="M199 19V13.8889L191 5V3H209V5L201 13.8889V19H206V21H194V19H199ZM195.491 7H204.509L206.309 5H193.691L195.491 7ZM197.291 9L200 12.0103L202.709 9H197.291Z" fill="black"/>
</svg>
