<svg width="90" height="90" viewBox="0 0 90 90" fill="none" xmlns="http://www.w3.org/2000/svg">
<path d="M22.8111 48.75C22.6065 47.5305 22.5 46.2776 22.5 45C22.5 32.5736 32.5736 22.5 45 22.5C57.4264 22.5 67.5 32.5736 67.5 45C67.5 46.2776 67.3935 47.5305 67.1888 48.75H59.5275C59.8357 47.5515 60 46.2949 60 45C60 36.7157 53.2841 30 45 30C36.7157 30 30 36.7157 30 45C30 46.2949 30.1641 47.5515 30.4726 48.75H22.8111ZM7.5 56.25H45V63.75H7.5V56.25ZM52.5 56.25H82.5V63.75H52.5V56.25ZM60 71.25H75V78.75H60V71.25ZM15 71.25H52.5V78.75H15V71.25ZM41.25 3.75H48.75V15H41.25V3.75ZM13.1802 18.4835L18.4835 13.1802L26.4384 21.1352L21.1352 26.4384L13.1802 18.4835ZM71.5166 13.1802L76.8199 18.4835L68.865 26.4384L63.5614 21.1352L71.5166 13.1802ZM86.25 41.25V48.75H75V41.25H86.25ZM15 41.25V48.75H3.75V41.25H15Z" fill="white"/>
</svg>
