<svg width="99" height="99" viewBox="0 0 99 99" fill="none" xmlns="http://www.w3.org/2000/svg">
<path d="M79.3757 19.6241C85.4081 25.6691 87.6756 34.0315 86.1812 41.8143C88.5283 42.476 90.7446 43.7258 92.5943 45.5619C98.3854 51.3109 98.3854 60.6321 92.5943 66.3812L70.125 88.6875L57.6593 76.3125L45.3746 88.6256L10.4007 53.5961C1.72032 43.8776 2.04479 28.9534 11.3741 19.6241C20.714 10.2842 35.6614 9.96959 45.3791 18.6802C55.0688 9.9825 70.0425 10.2713 79.3757 19.6241ZM53.4683 51.4165C50.9273 53.9389 50.9273 58.0037 53.4683 60.5261L70.125 77.0624L86.7818 60.5261C89.3228 58.0037 89.3228 53.9389 86.7818 51.4165C84.2077 48.861 80.0093 48.861 77.4263 51.4256L70.1163 58.66L64.3129 52.9031L62.8147 51.4165C60.2407 48.861 56.0423 48.861 53.4683 51.4165ZM17.2077 25.4577C11.0626 31.6029 10.754 41.4451 16.4172 47.9457L45.3746 76.949L51.8059 70.5045L47.6557 66.3812C41.8646 60.6321 41.8646 51.3109 47.6557 45.5619C53.4468 39.8127 62.8361 39.8127 68.6272 45.5619L70.1234 47.046L71.6228 45.5619C73.3743 43.8232 75.4549 42.61 77.6655 41.9232C79.3798 36.2826 77.9864 29.9113 73.5364 25.4517C67.3526 19.2553 57.3689 19.0039 50.8901 24.8196L45.3828 29.7629L39.8725 24.8235C33.3753 18.9996 23.4096 19.2558 17.2077 25.4577Z" fill="white"/>
</svg>
