<svg width="92" height="92" viewBox="0 0 92 92" fill="none" xmlns="http://www.w3.org/2000/svg">
<path d="M15.3333 86.5C15.3333 69.5632 29.0633 55.8333 46 55.8333C62.9368 55.8333 76.6667 69.5632 76.6667 86.5H69C69 73.7975 58.7025 63.5 46 63.5C33.2975 63.5 23 73.7975 23 86.5H15.3333ZM46 52C33.2925 52 23 41.7075 23 29C23 16.2925 33.2925 6 46 6C58.7075 6 69 16.2925 69 29C69 41.7075 58.7075 52 46 52ZM46 44.3333C54.4717 44.3333 61.3333 37.4717 61.3333 29C61.3333 20.5283 54.4717 13.6667 46 13.6667C37.5283 13.6667 30.6667 20.5283 30.6667 29C30.6667 37.4717 37.5283 44.3333 46 44.3333Z" fill="white"/>
</svg>
