<svg width="89" height="89" viewBox="0 0 89 89" fill="none" xmlns="http://www.w3.org/2000/svg">
<path d="M37.0833 25.9583C37.0833 40.2947 48.7053 51.9166 63.0417 51.9166C70.3041 51.9166 76.87 48.934 81.5815 44.1273C81.5833 44.2515 81.5833 44.3757 81.5833 44.5C81.5833 64.9803 64.9804 81.5833 44.5 81.5833C24.0194 81.5833 7.41667 64.9803 7.41667 44.5C7.41667 24.0194 24.0194 7.41663 44.5 7.41663C44.6242 7.41663 44.7485 7.41663 44.8727 7.41844C40.066 12.1298 37.0833 18.6958 37.0833 25.9583ZM14.8333 44.5C14.8333 60.8845 28.1155 74.1666 44.5 74.1666C55.8412 74.1666 65.6961 67.8028 70.6883 58.4511C68.2129 59.0318 65.6505 59.3333 63.0417 59.3333C44.609 59.3333 29.6667 44.3909 29.6667 25.9583C29.6667 23.3494 29.9683 20.7869 30.5489 18.3117C21.1972 23.304 14.8333 33.1588 14.8333 44.5Z" fill="white"/>
</svg>
