<svg width="95" height="95" viewBox="0 0 95 95" fill="none" xmlns="http://www.w3.org/2000/svg">
<path d="M7.91667 87.0833C7.91667 69.5941 22.0943 55.4166 39.5833 55.4166C57.0724 55.4166 71.25 69.5941 71.25 87.0833H63.3333C63.3333 73.9665 52.7001 63.3333 39.5833 63.3333C26.4666 63.3333 15.8333 73.9665 15.8333 87.0833H7.91667ZM39.5833 51.4583C26.4615 51.4583 15.8333 40.8301 15.8333 27.7083C15.8333 14.5864 26.4615 3.95825 39.5833 3.95825C52.7052 3.95825 63.3333 14.5864 63.3333 27.7083C63.3333 40.8301 52.7052 51.4583 39.5833 51.4583ZM39.5833 43.5416C48.3313 43.5416 55.4167 36.4562 55.4167 27.7083C55.4167 18.9603 48.3313 11.8749 39.5833 11.8749C30.8354 11.8749 23.75 18.9603 23.75 27.7083C23.75 36.4562 30.8354 43.5416 39.5833 43.5416ZM72.373 58.1985C83.3799 63.1595 91.0417 74.2266 91.0417 87.0833H83.125C83.125 77.4408 77.3787 69.1405 69.1236 65.4197L72.373 58.1985ZM69.6516 13.5105C77.5612 16.7715 83.125 24.5559 83.125 33.6458C83.125 45.007 74.4333 54.3288 63.3333 55.3279V47.3598C70.0494 46.4003 75.2083 40.6283 75.2083 33.6458C75.2083 28.1807 72.048 23.4571 67.454 21.2021L69.6516 13.5105Z" fill="white"/>
</svg>
